<?xml version="1.0" encoding="UTF-8"?>
<!DOCTYPE svg PUBLIC "-//W3C//DTD SVG 1.1//EN" "http://www.w3.org/Graphics/SVG/1.1/DTD/svg11.dtd">
<svg xmlns="http://www.w3.org/2000/svg" version="1.1" width="1920px" height="1080px" style="shape-rendering:geometricPrecision; text-rendering:geometricPrecision; image-rendering:optimizeQuality; fill-rule:evenodd; clip-rule:evenodd" xmlns:xlink="http://www.w3.org/1999/xlink">
<g><path style="opacity:0.05" fill="#ededed" d="M 463.5,51.5 C 462.626,52.5251 461.459,53.1918 460,53.5C 457.286,52.3173 454.453,51.6506 451.5,51.5C 434.082,53.5035 416.915,52.1701 400,47.5C 392.216,48.9134 384.383,50.08 376.5,51C 371.834,52.6661 367.501,54.8327 363.5,57.5C 366.626,53.7617 370.626,51.2617 375.5,50C 383.495,48.7968 391.495,47.6302 399.5,46.5C 409.415,48.5117 419.415,50.0117 429.5,51C 440.852,50.7196 452.185,50.8862 463.5,51.5 Z"/></g>
<g><path style="opacity:1" fill="#000000" d="M 463.5,51.5 C 463.842,50.6618 464.508,50.3284 465.5,50.5C 478.692,47.4366 491.692,48.1033 504.5,52.5C 506.426,54.2927 508.759,55.2927 511.5,55.5C 512.78,56.9313 514.447,57.5979 516.5,57.5C 517.791,57.2627 518.791,57.596 519.5,58.5C 523.558,60.8896 528.058,61.8896 533,61.5C 535.5,61.3333 538,61.1667 540.5,61C 541.416,60.7216 542.082,60.2216 542.5,59.5C 548.743,55.5594 555.41,54.5594 562.5,56.5C 566.267,57.7947 570.267,58.4613 574.5,58.5C 580.427,60.0071 586.594,60.6738 593,60.5C 604.5,59.6285 616,59.1285 627.5,59C 635.581,61.2502 643.748,63.0835 652,64.5C 667.892,61.4324 683.892,60.7657 700,62.5C 708.631,60.9069 717.298,59.5736 726,58.5C 752.765,62.1294 779.598,62.9627 806.5,61C 810.869,60.1577 815.203,59.1577 819.5,58C 832.199,57.5028 844.865,58.0028 857.5,59.5C 869.828,58.8811 882.162,58.3811 894.5,58C 895.777,56.2142 897.444,55.0476 899.5,54.5C 908.262,58.3485 916.929,58.3485 925.5,54.5C 925.842,53.6618 926.508,53.3284 927.5,53.5C 929.806,53.0074 932.139,52.6741 934.5,52.5C 938.042,52.1872 941.375,52.5206 944.5,53.5C 950.835,54.5949 957.335,54.5949 964,53.5C 968.545,53.929 973.045,54.5956 977.5,55.5C 981.702,55.1832 985.702,55.5166 989.5,56.5C 992.695,58.0933 996.195,59.0933 1000,59.5C 1003.4,59.1277 1006.24,57.7944 1008.5,55.5C 1009.51,54.3263 1010.85,53.6596 1012.5,53.5C 1014.5,53.5 1016.5,53.5 1018.5,53.5C 1019.79,53.2627 1020.79,53.596 1021.5,54.5C 1025.58,55.6822 1029.58,55.3489 1033.5,53.5C 1036.5,53.5 1039.5,53.5 1042.5,53.5C 1052.67,58.4864 1063,58.8197 1073.5,54.5C 1074.29,53.5987 1075.29,52.9321 1076.5,52.5C 1078.29,52.366 1079.96,52.6993 1081.5,53.5C 1081.61,54.1174 1081.94,54.6174 1082.5,55C 1086.03,55.8075 1089.36,55.6408 1092.5,54.5C 1097.46,53.3719 1102.63,52.7052 1108,52.5C 1111.78,52.3791 1115.28,53.0458 1118.5,54.5C 1119.5,55.6651 1120.83,56.3318 1122.5,56.5C 1127.87,53.8196 1133.54,52.1529 1139.5,51.5C 1147.76,52.2518 1155.76,54.0851 1163.5,57C 1169.14,57.7568 1174.81,58.2568 1180.5,58.5C 1200.16,57.7714 1219.83,57.2714 1239.5,57C 1243.97,55.8509 1248.13,54.0175 1252,51.5C 1256.92,55.0303 1262.42,57.1969 1268.5,58C 1280.71,59.9095 1292.88,62.0761 1305,64.5C 1316.42,62.2351 1327.92,60.5685 1339.5,59.5C 1344.56,60.2227 1349.56,61.2227 1354.5,62.5C 1358.92,60.4598 1363.59,59.2931 1368.5,59C 1369.83,58 1371.17,57 1372.5,56C 1388.53,54.8302 1404.53,53.3302 1420.5,51.5C 1433.91,55.0812 1447.58,56.2479 1461.5,55C 1464.45,54.1939 1467.11,52.8605 1469.5,51C 1471,50.8333 1472.5,50.6667 1474,50.5C 1483.96,52.9332 1493.8,55.7665 1503.5,59C 1514.89,59.7514 1526.22,59.2514 1537.5,57.5C 1542.09,58.1851 1546.59,59.1851 1551,60.5C 1561.59,58.9533 1572.09,56.9533 1582.5,54.5C 1584.75,54.9306 1586.92,55.5972 1589,56.5C 1591.96,55.1905 1594.96,53.8572 1598,52.5C 1599.78,53.3091 1601.62,53.9757 1603.5,54.5C 1605.8,53.6042 1608.13,53.4375 1610.5,54C 1614.67,58.084 1619.67,59.9173 1625.5,59.5C 1632.1,59.4011 1638.43,58.2344 1644.5,56C 1646.36,52.146 1649.19,50.9794 1653,52.5C 1654.75,55.2859 1656.58,57.9526 1658.5,60.5C 1667.36,59.8919 1676.36,58.7252 1685.5,57C 1687.36,55.0186 1689.69,54.0186 1692.5,54C 1695.16,50.0647 1698.16,50.0647 1701.5,54C 1707.79,55.4594 1714.12,55.4594 1720.5,54C 1721.67,53.5 1722.5,52.6667 1723,51.5C 1725.39,53.7759 1728.22,55.1092 1731.5,55.5C 1742.27,51.7557 1753.44,50.089 1765,50.5C 1776.76,51.7656 1788.59,52.7656 1800.5,53.5C 1800.33,66.8375 1800.5,80.1708 1801,93.5C 1802.48,96.3256 1804.48,98.6589 1807,100.5C 1807.17,103.667 1807.33,106.833 1807.5,110C 1806.83,117.539 1805.66,125.039 1804,132.5C 1801.97,135.583 1800.13,138.75 1798.5,142C 1799.19,145.752 1800.19,149.419 1801.5,153C 1799.83,155.333 1798.17,157.667 1796.5,160C 1796.76,161.261 1797.43,162.261 1798.5,163C 1800.68,163.163 1802.51,163.996 1804,165.5C 1804.81,169.67 1804.31,173.67 1802.5,177.5C 1804.46,181.749 1806.13,186.083 1807.5,190.5C 1805.47,190.338 1803.47,190.505 1801.5,191C 1800.87,191.75 1800.37,192.584 1800,193.5C 1799.5,202.16 1799.33,210.827 1799.5,219.5C 1802.17,219.5 1804.83,219.5 1807.5,219.5C 1804.84,226.123 1804.84,232.79 1807.5,239.5C 1807.5,240.167 1807.17,240.5 1806.5,240.5C 1805.18,240.33 1804.01,240.663 1803,241.5C 1802.98,258.533 1803.81,275.533 1805.5,292.5C 1804.88,292.611 1804.38,292.944 1804,293.5C 1803.5,296.817 1803.33,300.15 1803.5,303.5C 1802.26,305.649 1801.26,307.982 1800.5,310.5C 1796.2,314.339 1795.53,318.672 1798.5,323.5C 1799.34,323.842 1799.67,324.508 1799.5,325.5C 1800.8,326.488 1802.13,327.488 1803.5,328.5C 1803.5,331.5 1803.5,334.5 1803.5,337.5C 1798.51,343.64 1798.18,350.14 1802.5,357C 1801.39,361.959 1799.89,366.792 1798,371.5C 1797.5,374.482 1797.34,377.482 1797.5,380.5C 1797.5,383.167 1797.5,385.833 1797.5,388.5C 1795.88,393.106 1796.21,397.44 1798.5,401.5C 1798.67,409.077 1798.01,416.577 1796.5,424C 1797.08,430.303 1798.24,436.469 1800,442.5C 1800.68,447.029 1800.51,451.529 1799.5,456C 1799.53,458.569 1800.7,460.403 1803,461.5C 1803.32,471.079 1802.49,480.579 1800.5,490C 1803.85,499.03 1807.19,508.03 1810.5,517C 1808.49,525.372 1807.33,533.872 1807,542.5C 1806.98,561.5 1806.98,580.5 1807,599.5C 1799.4,626.7 1797.06,654.367 1800,682.5C 1800.23,683.737 1800.73,684.737 1801.5,685.5C 1801.38,706.837 1801.04,728.171 1800.5,749.5C 1799.34,758.324 1799.18,767.324 1800,776.5C 1800.12,781.434 1800.95,786.1 1802.5,790.5C 1803.74,792.214 1804.41,794.214 1804.5,796.5C 1804.61,801.622 1805.94,806.288 1808.5,810.5C 1810.81,827.413 1812.14,844.413 1812.5,861.5C 1812.68,873.382 1813.68,885.049 1815.5,896.5C 1815.57,903.018 1817.23,909.018 1820.5,914.5C 1819.95,916.61 1819.11,918.61 1818,920.5C 1817.17,937.005 1817.34,953.339 1818.5,969.5C 1819.39,981.521 1820.72,993.521 1822.5,1005.5C 1822.39,1006.44 1822.06,1007.28 1821.5,1008C 1811.19,1009.11 1800.85,1010.11 1790.5,1011C 1789.88,1013.21 1788.71,1015.05 1787,1016.5C 1783.22,1014.02 1779.05,1012.52 1774.5,1012C 1766.22,1010.41 1757.89,1009.74 1749.5,1010C 1748.46,1012.98 1746.8,1015.48 1744.5,1017.5C 1743.55,1019.05 1743.21,1020.71 1743.5,1022.5C 1740.04,1022.47 1736.71,1021.81 1733.5,1020.5C 1730.96,1016.58 1728.29,1012.75 1725.5,1009C 1718.21,1007.23 1711.88,1008.9 1706.5,1014C 1700.41,1014.93 1694.74,1016.93 1689.5,1020C 1682.5,1020.33 1675.5,1020.67 1668.5,1021C 1660.28,1023.74 1651.94,1026.07 1643.5,1028C 1627.39,1030.09 1611.22,1031.59 1595,1032.5C 1586.37,1032.28 1577.87,1031.11 1569.5,1029C 1565.93,1027.43 1562.93,1025.1 1560.5,1022C 1559.17,1021.83 1557.83,1021.67 1556.5,1021.5C 1550.68,1022.41 1545.01,1023.91 1539.5,1026C 1535.64,1026.65 1531.8,1026.48 1528,1025.5C 1525.54,1026.31 1523.04,1026.98 1520.5,1027.5C 1508.06,1023.1 1495.23,1021.44 1482,1022.5C 1470.63,1023.03 1459.29,1023.03 1448,1022.5C 1446.27,1022.95 1444.77,1023.78 1443.5,1025C 1437.48,1025.33 1431.48,1025.33 1425.5,1025C 1424.65,1026.02 1423.65,1026.86 1422.5,1027.5C 1418.47,1025.15 1414.81,1022.32 1411.5,1019C 1398.61,1016.22 1386.61,1018.55 1375.5,1026C 1373.33,1026.17 1371.17,1026.33 1369,1026.5C 1356.25,1024.42 1343.42,1023.09 1330.5,1022.5C 1317.85,1023.79 1305.19,1024.29 1292.5,1024C 1283.4,1021.08 1274.06,1019.25 1264.5,1018.5C 1242.74,1020.68 1221.24,1024.35 1200,1029.5C 1192.69,1029.13 1185.52,1029.13 1178.5,1029.5C 1161,1033.53 1143.34,1034.36 1125.5,1032C 1116.89,1029.05 1108.22,1026.55 1099.5,1024.5C 1079.53,1026.06 1059.53,1027.22 1039.5,1028C 1035.11,1029.03 1031.11,1030.86 1027.5,1033.5C 1024.74,1032.24 1022.4,1030.41 1020.5,1028C 1018.83,1027.83 1017.17,1027.67 1015.5,1027.5C 997.603,1030.13 979.603,1031.63 961.5,1032C 960.4,1033.02 959.067,1033.52 957.5,1033.5C 954.51,1032.67 951.51,1031.84 948.5,1031C 936.501,1029.72 924.501,1028.56 912.5,1027.5C 908.228,1023.46 903.061,1021.46 897,1021.5C 892.77,1022.23 888.604,1023.23 884.5,1024.5C 874.463,1020.83 864.13,1019.66 853.5,1021C 849.372,1021.4 845.706,1022.9 842.5,1025.5C 839.711,1023.4 836.544,1022.4 833,1022.5C 825.973,1023.31 818.973,1024.31 812,1025.5C 807.104,1024.77 802.271,1023.77 797.5,1022.5C 793.519,1023.63 789.852,1025.47 786.5,1028C 781.206,1028.72 776.206,1030.22 771.5,1032.5C 766.731,1031.28 762.731,1028.78 759.5,1025C 753.254,1024.2 747.087,1023.04 741,1021.5C 732.423,1024.69 723.59,1026.86 714.5,1028C 711.95,1029.44 709.284,1030.61 706.5,1031.5C 703.548,1030.93 700.881,1029.77 698.5,1028C 697.167,1027.33 695.833,1027.33 694.5,1028C 692.654,1032.51 689.487,1035.68 685,1037.5C 678.982,1035.72 672.815,1034.56 666.5,1034C 662.059,1031.23 657.392,1028.89 652.5,1027C 629.951,1022.61 607.951,1024.45 586.5,1032.5C 582.422,1030.59 578.755,1028.09 575.5,1025C 568.118,1025.05 560.951,1023.88 554,1021.5C 547.491,1025.51 543.657,1023.84 542.5,1016.5C 540.473,1016.34 538.473,1016.5 536.5,1017C 531.356,1020.7 525.69,1022.04 519.5,1021C 510.527,1027.66 500.527,1029.99 489.5,1028C 472.958,1022.42 455.958,1020.42 438.5,1022C 434.854,1024.3 431.187,1026.64 427.5,1029C 424.689,1029.63 421.856,1030.13 419,1030.5C 410.331,1027.72 401.498,1025.56 392.5,1024C 382.085,1023.32 371.752,1023.66 361.5,1025C 356.685,1023.95 352.352,1021.95 348.5,1019C 342.216,1015.54 336.05,1015.71 330,1019.5C 325.33,1018.19 320.83,1018.69 316.5,1021C 310.814,1021.3 305.147,1021.3 299.5,1021C 297.333,1022.5 295.167,1024 293,1025.5C 291.527,1023.86 289.693,1022.86 287.5,1022.5C 282.857,1023.48 278.191,1023.65 273.5,1023C 263.766,1020.61 253.933,1018.77 244,1017.5C 239.05,1017.65 234.717,1019.32 231,1022.5C 227.219,1020.72 223.219,1019.72 219,1019.5C 206.464,1022.89 193.964,1023.05 181.5,1020C 173.667,1019.83 165.833,1019.67 158,1019.5C 139.617,1019.68 121.117,1020.01 102.5,1020.5C 100.207,974.147 97.5404,927.814 94.5,881.5C 94.1936,878.615 94.5269,875.948 95.5,873.5C 96.7682,871.095 97.4349,868.428 97.5,865.5C 97.7073,862.759 98.7073,860.426 100.5,858.5C 102.218,856.777 103.551,854.777 104.5,852.5C 104.833,851.5 105.5,850.833 106.5,850.5C 109.022,849.335 109.022,848.002 106.5,846.5C 105.135,843.041 105.469,839.708 107.5,836.5C 108.216,834.444 108.883,832.277 109.5,830C 107.19,829.503 104.857,829.337 102.5,829.5C 104.256,823.299 105.256,816.966 105.5,810.5C 105.427,808.973 106.094,807.973 107.5,807.5C 108.496,807.586 109.329,807.252 110,806.5C 110.805,803.304 110.638,800.304 109.5,797.5C 109.5,795.5 109.5,793.5 109.5,791.5C 109.932,788.123 109.265,785.123 107.5,782.5C 106.486,781.326 105.153,780.66 103.5,780.5C 103.5,779.833 103.5,779.167 103.5,778.5C 106.569,777.196 107.569,775.196 106.5,772.5C 105.209,771.458 105.209,770.292 106.5,769C 108.473,768.505 110.473,768.338 112.5,768.5C 114.38,768.771 115.713,768.104 116.5,766.5C 118.027,766.573 119.027,765.906 119.5,764.5C 121.213,763.365 121.88,761.698 121.5,759.5C 121.5,759.167 121.5,758.833 121.5,758.5C 123.027,758.573 124.027,757.906 124.5,756.5C 124.254,751.499 124.921,746.499 126.5,741.5C 126.5,739.5 125.5,738.5 123.5,738.5C 122.29,738.068 121.29,737.401 120.5,736.5C 116.569,735.689 112.569,734.689 108.5,733.5C 108.615,731.053 109.615,729.053 111.5,727.5C 111.842,726.662 112.508,726.328 113.5,726.5C 114.376,726.631 115.043,726.298 115.5,725.5C 116.653,724.313 116.653,723.313 115.5,722.5C 114.167,721.833 113.167,720.833 112.5,719.5C 111.833,716.833 110.167,715.167 107.5,714.5C 106.475,713.626 105.808,712.459 105.5,711C 107.695,704.75 108.028,698.416 106.5,692C 107.705,690.624 109.038,689.458 110.5,688.5C 111.496,688.586 112.329,688.252 113,687.5C 113.78,685.613 113.613,683.946 112.5,682.5C 112.508,679.455 112.841,676.455 113.5,673.5C 115.709,668.715 116.542,663.715 116,658.5C 114.846,657.257 113.512,656.257 112,655.5C 111.517,654.552 111.351,653.552 111.5,652.5C 115.244,650.701 116.244,648.034 114.5,644.5C 113.662,644.158 113.328,643.492 113.5,642.5C 113.771,640.62 113.104,639.287 111.5,638.5C 109.057,635.948 107.39,632.948 106.5,629.5C 109.01,629.073 111.343,628.407 113.5,627.5C 114.29,626.599 115.29,625.932 116.5,625.5C 119.034,623.084 119.034,620.75 116.5,618.5C 114.629,618.141 113.129,617.141 112,615.5C 110.455,610.777 109.288,605.944 108.5,601C 110.633,597.353 110.967,593.52 109.5,589.5C 109.573,587.973 108.906,586.973 107.5,586.5C 105.177,583.999 105.844,581.999 109.5,580.5C 110.972,578.883 111.639,576.883 111.5,574.5C 110.12,566.221 109.453,557.888 109.5,549.5C 109.738,547.596 110.738,546.262 112.5,545.5C 113.79,544.942 114.623,543.942 115,542.5C 115.815,537.648 115.648,532.981 114.5,528.5C 113.539,526.735 113.205,524.735 113.5,522.5C 113.706,519.505 113.04,516.838 111.5,514.5C 109.959,509.636 109.292,504.636 109.5,499.5C 109.5,497.5 110.5,496.5 112.5,496.5C 114.048,496.179 114.715,495.179 114.5,493.5C 114.328,492.508 114.662,491.842 115.5,491.5C 116.947,490.866 117.613,489.699 117.5,488C 117.472,486.93 117.139,486.097 116.5,485.5C 115.637,484.06 115.637,482.726 116.5,481.5C 116.145,480.478 115.478,479.811 114.5,479.5C 114.359,475.907 113.692,472.407 112.5,469C 115.11,461.574 114.776,454.241 111.5,447C 112.623,433.189 112.79,419.355 112,405.5C 111.495,403.482 110.995,401.482 110.5,399.5C 111.801,395.063 112.467,390.397 112.5,385.5C 111.287,377.682 111.287,370.016 112.5,362.5C 115.167,360.5 115.167,358.5 112.5,356.5C 111.662,356.158 111.328,355.492 111.5,354.5C 110.141,350.747 108.807,347.081 107.5,343.5C 106.839,341.866 106.506,340.033 106.5,338C 106.36,334.85 107.027,332.017 108.5,329.5C 110.173,328.657 111.34,327.324 112,325.5C 112.147,320.045 112.98,314.712 114.5,309.5C 112.386,297.756 110.719,286.089 109.5,274.5C 110.29,270.794 111.29,267.128 112.5,263.5C 111.976,261.617 111.309,259.784 110.5,258C 113.551,253.357 114.217,248.357 112.5,243C 112.439,240.739 113.106,238.739 114.5,237C 113.034,234.186 111.534,231.353 110,228.5C 109.959,221.987 110.459,215.487 111.5,209C 110.797,203.189 109.464,197.523 107.5,192C 108.63,187.979 110.13,184.146 112,180.5C 112.667,175.833 112.667,171.167 112,166.5C 109.519,161.99 109.019,157.323 110.5,152.5C 113.354,140.519 113.687,128.519 111.5,116.5C 111.358,97.7608 110.358,79.0942 108.5,60.5C 122.639,58.822 136.639,57.1554 150.5,55.5C 151.167,55.5 151.833,55.5 152.5,55.5C 159.367,55.2612 166.2,55.5945 173,56.5C 176.805,55.859 179.639,53.859 181.5,50.5C 182.708,49.7659 184.041,49.4326 185.5,49.5C 186.167,49.5 186.5,49.8333 186.5,50.5C 186.427,52.0269 187.094,53.0269 188.5,53.5C 188.5,55.5 189.5,56.5 191.5,56.5C 194.912,58.6461 198.745,59.6461 203,59.5C 212.067,57.8547 220.901,55.5213 229.5,52.5C 232.583,52.7384 235.416,53.7384 238,55.5C 240.438,54.0344 242.605,54.3677 244.5,56.5C 249.797,54.0441 255.131,54.0441 260.5,56.5C 268.025,55.8527 275.358,54.8527 282.5,53.5C 299.342,53.0923 316.176,52.4256 333,51.5C 340.56,52.5085 348.06,53.8419 355.5,55.5C 355.833,56.5 356.5,57.1667 357.5,57.5C 359.406,59.9938 361.406,59.9938 363.5,57.5C 367.501,54.8327 371.834,52.6661 376.5,51C 384.383,50.08 392.216,48.9134 400,47.5C 416.915,52.1701 434.082,53.5035 451.5,51.5C 454.453,51.6506 457.286,52.3173 460,53.5C 461.459,53.1918 462.626,52.5251 463.5,51.5 Z"/></g>
<g><path style="opacity:0.007" fill="#fdfdfd" d="M 185.5,49.5 C 184.041,49.4326 182.708,49.7659 181.5,50.5C 181.62,49.4138 182.287,48.7472 183.5,48.5C 184.416,48.5427 185.083,48.8761 185.5,49.5 Z"/></g>
<g><path style="opacity:0.044" fill="#dddddd" d="M 504.5,52.5 C 491.692,48.1033 478.692,47.4366 465.5,50.5C 466.681,48.9328 468.347,48.0995 470.5,48C 479.233,46.0767 487.899,46.41 496.5,49C 499.572,49.5784 502.239,50.745 504.5,52.5 Z"/></g>
<g><path style="opacity:0.055" fill="#eeeeee" d="M 355.5,55.5 C 348.06,53.8419 340.56,52.5085 333,51.5C 316.176,52.4256 299.342,53.0923 282.5,53.5C 299.343,52.1102 316.343,50.7769 333.5,49.5C 339.481,50.7715 345.481,51.9381 351.5,53C 353.32,53.2004 354.653,54.0337 355.5,55.5 Z"/></g>
<g><path style="opacity:0.214" fill="#d5d5d5" d="M 186.5,50.5 C 187.906,50.9731 188.573,51.9731 188.5,53.5C 187.094,53.0269 186.427,52.0269 186.5,50.5 Z"/></g>
<g><path style="opacity:0.073" fill="#ebebeb" d="M 282.5,53.5 C 275.358,54.8527 268.025,55.8527 260.5,56.5C 255.131,54.0441 249.797,54.0441 244.5,56.5C 242.605,54.3677 240.438,54.0344 238,55.5C 235.416,53.7384 232.583,52.7384 229.5,52.5C 220.901,55.5213 212.067,57.8547 203,59.5C 198.745,59.6461 194.912,58.6461 191.5,56.5C 196.011,57.0255 200.511,57.6922 205,58.5C 213.216,56.226 221.383,53.8927 229.5,51.5C 234.612,52.6364 239.779,53.6364 245,54.5C 257.632,54.3776 270.132,54.0442 282.5,53.5 Z"/></g>
<g><path style="opacity:0.009" fill="#f5f5f5" d="M 934.5,52.5 C 932.139,52.6741 929.806,53.0074 927.5,53.5C 929.655,51.466 931.988,51.1326 934.5,52.5 Z"/></g>
<g><path style="opacity:0.043" fill="#fdfdfd" d="M 1076.5,52.5 C 1077.1,51.8614 1077.93,51.528 1079,51.5C 1080.38,51.6842 1081.21,52.3509 1081.5,53.5C 1079.96,52.6993 1078.29,52.366 1076.5,52.5 Z"/></g>
<g><path style="opacity:0.051" fill="#ebebeb" d="M 504.5,52.5 C 507.241,52.7073 509.574,53.7073 511.5,55.5C 508.759,55.2927 506.426,54.2927 504.5,52.5 Z"/></g>
<g><path style="opacity:0.259" fill="#dcdcdc" d="M 1018.5,53.5 C 1016.5,53.5 1014.5,53.5 1012.5,53.5C 1014.5,50.8333 1016.5,50.8333 1018.5,53.5 Z"/></g>
<g><path style="opacity:0.046" fill="#fcfcfc" d="M 1042.5,53.5 C 1039.5,53.5 1036.5,53.5 1033.5,53.5C 1036.45,51.1197 1039.45,51.1197 1042.5,53.5 Z"/></g>
<g><path style="opacity:0.278" fill="#d4d4d4" d="M 977.5,55.5 C 973.045,54.5956 968.545,53.929 964,53.5C 957.335,54.5949 950.835,54.5949 944.5,53.5C 950.937,53.6726 957.27,53.0059 963.5,51.5C 968.505,52.011 973.172,53.3443 977.5,55.5 Z"/></g>
<g><path style="opacity:0.011" fill="#ededed" d="M 181.5,50.5 C 179.639,53.859 176.805,55.859 173,56.5C 166.2,55.5945 159.367,55.2612 152.5,55.5C 159.371,54.1871 166.371,54.1871 173.5,55.5C 176.202,53.78 178.868,52.1134 181.5,50.5 Z"/></g>
<g><path style="opacity:0.14" fill="#f8f8f8" d="M 1033.5,53.5 C 1029.58,55.3489 1025.58,55.6822 1021.5,54.5C 1025.5,54.1667 1029.5,53.8333 1033.5,53.5 Z"/></g>
<g><path style="opacity:0.053" fill="#fcfcfc" d="M 1081.5,53.5 C 1085.1,54.3439 1088.77,54.6773 1092.5,54.5C 1089.36,55.6408 1086.03,55.8075 1082.5,55C 1081.94,54.6174 1081.61,54.1174 1081.5,53.5 Z"/></g>
<g><path style="opacity:0.529" fill="#d6d6d6" d="M 188.5,53.5 C 189.833,54.1667 190.833,55.1667 191.5,56.5C 189.5,56.5 188.5,55.5 188.5,53.5 Z"/></g>
<g><path style="opacity:0.162" fill="#fdfdfd" d="M 355.5,55.5 C 356.833,55.5 357.5,56.1667 357.5,57.5C 356.5,57.1667 355.833,56.5 355.5,55.5 Z"/></g>
<g><path style="opacity:0.059" fill="#eeeeee" d="M 511.5,55.5 C 513.553,55.4021 515.22,56.0687 516.5,57.5C 514.447,57.5979 512.78,56.9313 511.5,55.5 Z"/></g>
<g><path style="opacity:0.032" fill="#f4f4f4" d="M 562.5,56.5 C 566.764,56.3442 570.764,57.0109 574.5,58.5C 570.267,58.4613 566.267,57.7947 562.5,56.5 Z"/></g>
<g><path style="opacity:0.054" fill="#efefef" d="M 1042.5,53.5 C 1047.56,54.8713 1052.72,55.8713 1058,56.5C 1063.17,55.7911 1068.34,55.1245 1073.5,54.5C 1063,58.8197 1052.67,58.4864 1042.5,53.5 Z"/></g>
<g><path style="opacity:0.021" fill="#d5d5d5" d="M 150.5,55.5 C 136.639,57.1554 122.639,58.822 108.5,60.5C 122.139,57.0459 136.139,55.3793 150.5,55.5 Z"/></g>
<g><path style="opacity:0.091" fill="#f0f0f0" d="M 357.5,57.5 C 359.5,57.5 361.5,57.5 363.5,57.5C 361.406,59.9938 359.406,59.9938 357.5,57.5 Z"/></g>
<g><path style="opacity:0.055" fill="#eaeaea" d="M 1008.5,55.5 C 1006.24,57.7944 1003.4,59.1277 1000,59.5C 996.195,59.0933 992.695,58.0933 989.5,56.5C 995.975,58.0982 1002.31,57.7649 1008.5,55.5 Z"/></g>
<g><path style="opacity:0.071" fill="#ededed" d="M 1807.5,219.5 C 1804.83,219.5 1802.17,219.5 1799.5,219.5C 1799.33,210.827 1799.5,202.16 1800,193.5C 1800.37,192.584 1800.87,191.75 1801.5,191C 1803.47,190.505 1805.47,190.338 1807.5,190.5C 1806.13,186.083 1804.46,181.749 1802.5,177.5C 1804.31,173.67 1804.81,169.67 1804,165.5C 1802.51,163.996 1800.68,163.163 1798.5,163C 1797.43,162.261 1796.76,161.261 1796.5,160C 1798.17,157.667 1799.83,155.333 1801.5,153C 1800.19,149.419 1799.19,145.752 1798.5,142C 1800.13,138.75 1801.97,135.583 1804,132.5C 1805.66,125.039 1806.83,117.539 1807.5,110C 1807.33,106.833 1807.17,103.667 1807,100.5C 1804.48,98.6589 1802.48,96.3256 1801,93.5C 1800.5,80.1708 1800.33,66.8375 1800.5,53.5C 1788.59,52.7656 1776.76,51.7656 1765,50.5C 1753.44,50.089 1742.27,51.7557 1731.5,55.5C 1728.22,55.1092 1725.39,53.7759 1723,51.5C 1722.5,52.6667 1721.67,53.5 1720.5,54C 1714.12,55.4594 1707.79,55.4594 1701.5,54C 1698.16,50.0647 1695.16,50.0647 1692.5,54C 1689.69,54.0186 1687.36,55.0186 1685.5,57C 1676.36,58.7252 1667.36,59.8919 1658.5,60.5C 1656.58,57.9526 1654.75,55.2859 1653,52.5C 1649.19,50.9794 1646.36,52.146 1644.5,56C 1638.43,58.2344 1632.1,59.4011 1625.5,59.5C 1619.67,59.9173 1614.67,58.084 1610.5,54C 1608.13,53.4375 1605.8,53.6042 1603.5,54.5C 1601.62,53.9757 1599.78,53.3091 1598,52.5C 1594.96,53.8572 1591.96,55.1905 1589,56.5C 1586.92,55.5972 1584.75,54.9306 1582.5,54.5C 1572.09,56.9533 1561.59,58.9533 1551,60.5C 1546.59,59.1851 1542.09,58.1851 1537.5,57.5C 1526.22,59.2514 1514.89,59.7514 1503.5,59C 1493.8,55.7665 1483.96,52.9332 1474,50.5C 1472.5,50.6667 1471,50.8333 1469.5,51C 1467.11,52.8605 1464.45,54.1939 1461.5,55C 1447.58,56.2479 1433.91,55.0812 1420.5,51.5C 1404.53,53.3302 1388.53,54.8302 1372.5,56C 1371.17,57 1369.83,58 1368.5,59C 1363.59,59.2931 1358.92,60.4598 1354.5,62.5C 1349.56,61.2227 1344.56,60.2227 1339.5,59.5C 1327.92,60.5685 1316.42,62.2351 1305,64.5C 1292.88,62.0761 1280.71,59.9095 1268.5,58C 1262.42,57.1969 1256.92,55.0303 1252,51.5C 1248.13,54.0175 1243.97,55.8509 1239.5,57C 1219.83,57.2714 1200.16,57.7714 1180.5,58.5C 1174.81,58.2568 1169.14,57.7568 1163.5,57C 1155.76,54.0851 1147.76,52.2518 1139.5,51.5C 1133.54,52.1529 1127.87,53.8196 1122.5,56.5C 1120.83,56.3318 1119.5,55.6651 1118.5,54.5C 1119.93,54.4208 1121.26,54.7542 1122.5,55.5C 1127.53,52.2355 1133.03,50.2355 1139,49.5C 1147.72,50.3114 1156.22,52.1447 1164.5,55C 1187.43,54.5661 1210.27,54.7328 1233,55.5C 1236.17,55.3333 1239.33,55.1667 1242.5,55C 1245.61,53.3635 1248.77,51.8635 1252,50.5C 1255.26,51.8797 1258.42,53.3797 1261.5,55C 1275.88,57.6192 1290.22,60.4525 1304.5,63.5C 1316.05,60.9933 1327.71,59.3266 1339.5,58.5C 1344.6,59.0377 1349.6,60.0377 1354.5,61.5C 1360.27,59.4803 1365.93,57.3136 1371.5,55C 1389.9,53.5088 1408.07,51.6755 1426,49.5C 1427.92,51.0855 1430.09,52.2521 1432.5,53C 1441.46,54.3841 1450.46,54.7174 1459.5,54C 1462.45,53.1939 1465.11,51.8605 1467.5,50C 1472.9,49.2282 1478.24,49.5615 1483.5,51C 1491.5,54.667 1499.83,57.167 1508.5,58.5C 1517.93,58.4752 1527.43,57.8085 1537,56.5C 1541.98,56.7874 1546.82,57.7874 1551.5,59.5C 1561.75,57.2205 1572.08,55.2205 1582.5,53.5C 1585.05,53.4424 1587.38,54.1091 1589.5,55.5C 1592.01,53.4935 1594.85,52.1602 1598,51.5C 1602.81,52.1926 1607.64,52.6926 1612.5,53C 1614.98,55.9902 1618.14,57.8235 1622,58.5C 1629.7,58.56 1637.2,57.06 1644.5,54C 1645.45,51.1185 1647.45,49.9518 1650.5,50.5C 1651.83,50.6667 1653.17,50.8333 1654.5,51C 1656.17,53.3333 1657.83,55.6667 1659.5,58C 1672.79,59.118 1684.96,56.2847 1696,49.5C 1703.41,53.69 1711.25,54.5233 1719.5,52C 1720.56,50.702 1721.73,49.5353 1723,48.5C 1725.05,51.206 1727.72,53.206 1731,54.5C 1737.22,51.8553 1743.72,50.3553 1750.5,50C 1767.56,49.0987 1784.56,49.7654 1801.5,52C 1802.12,65.0975 1802.28,78.2641 1802,91.5C 1803.64,94.4099 1805.64,97.0766 1808,99.5C 1808.35,104.184 1808.85,108.851 1809.5,113.5C 1807.47,120.025 1805.97,126.692 1805,133.5C 1804.66,136.193 1803.32,138.193 1801,139.5C 1801.12,144.861 1801.46,150.194 1802,155.5C 1801.22,157.286 1800.05,158.786 1798.5,160C 1807.03,163.984 1808.7,169.984 1803.5,178C 1806.98,182.228 1808.31,186.894 1807.5,192C 1805.27,192.121 1803.44,192.954 1802,194.5C 1800.85,202.142 1800.51,209.809 1801,217.5C 1803.28,218.117 1805.44,218.784 1807.5,219.5 Z"/></g>
<g><path style="opacity:0.068" fill="#f5f5f5" d="M 925.5,54.5 C 916.929,58.3485 908.262,58.3485 899.5,54.5C 897.444,55.0476 895.777,56.2142 894.5,58C 882.162,58.3811 869.828,58.8811 857.5,59.5C 844.865,58.0028 832.199,57.5028 819.5,58C 815.203,59.1577 810.869,60.1577 806.5,61C 779.598,62.9627 752.765,62.1294 726,58.5C 717.298,59.5736 708.631,60.9069 700,62.5C 683.892,60.7657 667.892,61.4324 652,64.5C 643.748,63.0835 635.581,61.2502 627.5,59C 616,59.1285 604.5,59.6285 593,60.5C 586.594,60.6738 580.427,60.0071 574.5,58.5C 580.654,58.9633 586.82,59.2966 593,59.5C 602.063,57.7806 611.23,57.1139 620.5,57.5C 628.74,57.7814 636.74,59.2814 644.5,62C 649.672,62.3646 654.672,62.5313 659.5,62.5C 673.393,59.0475 687.059,58.7141 700.5,61.5C 708.874,59.3543 717.374,58.0209 726,57.5C 745.204,59.4208 764.37,60.7541 783.5,61.5C 789.412,61.5142 795.245,60.8475 801,59.5C 802.107,59.5852 803.107,59.9186 804,60.5C 806.865,58.5294 809.865,57.8627 813,58.5C 817.996,56.8053 823.163,55.8053 828.5,55.5C 836.86,56.2808 845.194,57.2808 853.5,58.5C 866.815,57.7211 880.148,57.2211 893.5,57C 894.907,54.7483 896.907,53.5816 899.5,53.5C 903.762,54.7762 908.095,55.7762 912.5,56.5C 916.788,55.5888 921.121,54.9221 925.5,54.5 Z"/></g>
<g><path style="opacity:0.061" fill="#f0f0f0" d="M 519.5,58.5 C 527.083,60.6595 534.75,60.9929 542.5,59.5C 542.082,60.2216 541.416,60.7216 540.5,61C 538,61.1667 535.5,61.3333 533,61.5C 528.058,61.8896 523.558,60.8896 519.5,58.5 Z"/></g>
<g><path style="opacity:0.013" fill="#e9e9e9" d="M 108.5,60.5 C 110.358,79.0942 111.358,97.7608 111.5,116.5C 109.82,98.495 108.487,80.3284 107.5,62C 107.57,61.2352 107.903,60.7352 108.5,60.5 Z"/></g>
<g><path style="opacity:0.022" fill="#e3e3e3" d="M 111.5,116.5 C 113.687,128.519 113.354,140.519 110.5,152.5C 109.715,148.641 109.882,144.975 111,141.5C 111.5,133.173 111.666,124.84 111.5,116.5 Z"/></g>
<g><path style="opacity:0.025" fill="#f1f1f1" d="M 1807.5,219.5 C 1806.24,226.182 1806.24,232.848 1807.5,239.5C 1804.84,232.79 1804.84,226.123 1807.5,219.5 Z"/></g>
<g><path style="opacity:0.052" fill="#eaeaea" d="M 110.5,152.5 C 109.019,157.323 109.519,161.99 112,166.5C 112.667,171.167 112.667,175.833 112,180.5C 110.13,184.146 108.63,187.979 107.5,192C 109.464,197.523 110.797,203.189 111.5,209C 110.459,215.487 109.959,221.987 110,228.5C 111.534,231.353 113.034,234.186 114.5,237C 113.106,238.739 112.439,240.739 112.5,243C 114.217,248.357 113.551,253.357 110.5,258C 111.309,259.784 111.976,261.617 112.5,263.5C 111.29,267.128 110.29,270.794 109.5,274.5C 108.8,270.829 109.467,267.162 111.5,263.5C 110.104,262.148 109.437,260.481 109.5,258.5C 111.608,253.46 111.942,248.293 110.5,243C 110.865,240.739 111.531,238.573 112.5,236.5C 111.097,234.269 109.93,231.936 109,229.5C 108.5,222.991 108.667,216.491 109.5,210C 109.146,203.896 108.146,197.896 106.5,192C 108.239,185.632 109.906,179.298 111.5,173C 110.079,168.075 109.079,163.075 108.5,158C 108.547,155.705 109.213,153.871 110.5,152.5 Z"/></g>
<g><path style="opacity:0.068" fill="#e9e9e9" d="M 1806.5,240.5 C 1806.22,241.289 1805.72,241.956 1805,242.5C 1803.97,258.444 1804.8,274.277 1807.5,290C 1807.36,291.301 1806.69,292.134 1805.5,292.5C 1803.81,275.533 1802.98,258.533 1803,241.5C 1804.01,240.663 1805.18,240.33 1806.5,240.5 Z"/></g>
<g><path style="opacity:0.056" fill="#f9f9f9" d="M 1805.5,292.5 C 1804.97,296.312 1804.31,299.979 1803.5,303.5C 1803.33,300.15 1803.5,296.817 1804,293.5C 1804.38,292.944 1804.88,292.611 1805.5,292.5 Z"/></g>
<g><path style="opacity:0.127" fill="#e8e8e8" d="M 1803.5,303.5 C 1803.83,306.491 1802.83,308.824 1800.5,310.5C 1801.26,307.982 1802.26,305.649 1803.5,303.5 Z"/></g>
<g><path style="opacity:0.085" fill="#e5e5e5" d="M 1800.5,310.5 C 1798.82,314.636 1798.15,318.969 1798.5,323.5C 1795.53,318.672 1796.2,314.339 1800.5,310.5 Z"/></g>
<g><path style="opacity:0.035" fill="#e7e7e7" d="M 109.5,274.5 C 110.719,286.089 112.386,297.756 114.5,309.5C 112.98,314.712 112.147,320.045 112,325.5C 111.34,327.324 110.173,328.657 108.5,329.5C 109.778,327.177 110.778,324.677 111.5,322C 111.355,321.228 111.022,320.561 110.5,320C 111.592,316.45 112.259,312.783 112.5,309C 110.815,297.564 109.815,286.064 109.5,274.5 Z"/></g>
<g><path style="opacity:0.063" fill="#dddddd" d="M 1799.5,325.5 C 1801.97,325.088 1803.31,326.088 1803.5,328.5C 1802.13,327.488 1800.8,326.488 1799.5,325.5 Z"/></g>
<g><path style="opacity:0.298" fill="#c7c7c7" d="M 1803.5,328.5 C 1804.95,329.134 1805.61,330.301 1805.5,332C 1805.3,334.111 1804.63,335.945 1803.5,337.5C 1803.5,334.5 1803.5,331.5 1803.5,328.5 Z"/></g>
<g><path style="opacity:0.058" fill="#ededed" d="M 107.5,343.5 C 108.807,347.081 110.141,350.747 111.5,354.5C 108.611,351.509 107.278,347.842 107.5,343.5 Z"/></g>
<g><path style="opacity:0.125" fill="#ebebeb" d="M 112.5,356.5 C 115.167,358.5 115.167,360.5 112.5,362.5C 112.5,360.5 112.5,358.5 112.5,356.5 Z"/></g>
<g><path style="opacity:0.075" fill="#e5e5e5" d="M 1803.5,337.5 C 1802.52,340.812 1801.52,344.145 1800.5,347.5C 1802.2,350.446 1803.2,353.613 1803.5,357C 1801.66,364.833 1799.99,372.666 1798.5,380.5C 1798.17,380.5 1797.83,380.5 1797.5,380.5C 1797.34,377.482 1797.5,374.482 1798,371.5C 1799.89,366.792 1801.39,361.959 1802.5,357C 1798.18,350.14 1798.51,343.64 1803.5,337.5 Z"/></g>
<g><path style="opacity:0.05" fill="#f2f2f2" d="M 112.5,362.5 C 111.287,370.016 111.287,377.682 112.5,385.5C 112.467,390.397 111.801,395.063 110.5,399.5C 110.831,391.522 110.831,383.689 110.5,376C 110.579,371.274 111.246,366.774 112.5,362.5 Z"/></g>
<g><path style="opacity:0.533" fill="#919191" d="M 1797.5,380.5 C 1797.83,380.5 1798.17,380.5 1798.5,380.5C 1799.77,383.272 1799.77,385.939 1798.5,388.5C 1798.17,388.5 1797.83,388.5 1797.5,388.5C 1797.5,385.833 1797.5,383.167 1797.5,380.5 Z"/></g>
<g><path style="opacity:0.047" fill="#dbdbdb" d="M 1797.5,388.5 C 1797.83,388.5 1798.17,388.5 1798.5,388.5C 1798.5,392.833 1798.5,397.167 1798.5,401.5C 1796.21,397.44 1795.88,393.106 1797.5,388.5 Z"/></g>
<g><path style="opacity:0.044" fill="#f2f2f2" d="M 110.5,399.5 C 110.995,401.482 111.495,403.482 112,405.5C 112.79,419.355 112.623,433.189 111.5,447C 114.776,454.241 115.11,461.574 112.5,469C 113.692,472.407 114.359,475.907 114.5,479.5C 111.215,473.601 110.549,467.268 112.5,460.5C 111.833,455.5 111.167,450.5 110.5,445.5C 111.107,430.004 111.107,414.671 110.5,399.5 Z"/></g>
<g><path style="opacity:0.137" fill="#f1f1f1" d="M 114.5,479.5 C 115.478,479.811 116.145,480.478 116.5,481.5C 115.637,482.726 115.637,484.06 116.5,485.5C 114.72,484.01 114.054,482.01 114.5,479.5 Z"/></g>
<g><path style="opacity:0.138" fill="#f3f3f3" d="M 116.5,485.5 C 117.139,486.097 117.472,486.93 117.5,488C 117.613,489.699 116.947,490.866 115.5,491.5C 116.15,489.565 116.483,487.565 116.5,485.5 Z"/></g>
<g><path style="opacity:0.616" fill="#d8d8d8" d="M 114.5,493.5 C 114.715,495.179 114.048,496.179 112.5,496.5C 112.932,495.29 113.599,494.29 114.5,493.5 Z"/></g>
<g><path style="opacity:0.02" fill="#eeeeee" d="M 109.5,499.5 C 109.292,504.636 109.959,509.636 111.5,514.5C 110.207,513.158 109.374,511.491 109,509.5C 108.192,505.973 108.359,502.64 109.5,499.5 Z"/></g>
<g><path style="opacity:0.02" fill="#e5e5e5" d="M 1798.5,401.5 C 1799.82,409.076 1799.49,416.743 1797.5,424.5C 1799,431.167 1800.5,437.833 1802,444.5C 1802.7,448.535 1802.53,452.535 1801.5,456.5C 1801.7,458.208 1802.54,459.541 1804,460.5C 1804.17,463 1804.33,465.5 1804.5,468C 1803.15,477.132 1802.65,486.299 1803,495.5C 1807.26,502.337 1810.09,509.67 1811.5,517.5C 1806.99,541.879 1806.33,566.213 1809.5,590.5C 1805.94,606.358 1803.1,622.358 1801,638.5C 1800.25,654.188 1800.41,669.854 1801.5,685.5C 1800.73,684.737 1800.23,683.737 1800,682.5C 1797.06,654.367 1799.4,626.7 1807,599.5C 1806.98,580.5 1806.98,561.5 1807,542.5C 1807.33,533.872 1808.49,525.372 1810.5,517C 1807.19,508.03 1803.85,499.03 1800.5,490C 1802.49,480.579 1803.32,471.079 1803,461.5C 1800.7,460.403 1799.53,458.569 1799.5,456C 1800.51,451.529 1800.68,447.029 1800,442.5C 1798.24,436.469 1797.08,430.303 1796.5,424C 1798.01,416.577 1798.67,409.077 1798.5,401.5 Z"/></g>
<g><path style="opacity:0.008" fill="#e6e6e6" d="M 111.5,514.5 C 113.04,516.838 113.706,519.505 113.5,522.5C 112.232,520.095 111.565,517.428 111.5,514.5 Z"/></g>
<g><path style="opacity:0.022" fill="#efefef" d="M 114.5,528.5 C 115.648,532.981 115.815,537.648 115,542.5C 114.623,543.942 113.79,544.942 112.5,545.5C 114.281,540.068 114.948,534.401 114.5,528.5 Z"/></g>
<g><path style="opacity:0.049" fill="#efefef" d="M 109.5,549.5 C 109.453,557.888 110.12,566.221 111.5,574.5C 111.639,576.883 110.972,578.883 109.5,580.5C 108.93,569.991 108.93,559.658 109.5,549.5 Z"/></g>
<g><path style="opacity:0.186" fill="#f4f4f4" d="M 107.5,586.5 C 108.906,586.973 109.573,587.973 109.5,589.5C 108.094,589.027 107.427,588.027 107.5,586.5 Z"/></g>
<g><path style="opacity:0.231" fill="#fefefe" d="M 116.5,618.5 C 119.034,620.75 119.034,623.084 116.5,625.5C 117.546,623.118 117.546,620.785 116.5,618.5 Z"/></g>
<g><path style="opacity:0.083" fill="#eeeeee" d="M 113.5,627.5 C 111.343,628.407 109.01,629.073 106.5,629.5C 106.611,628.883 106.944,628.383 107.5,628C 109.473,627.505 111.473,627.338 113.5,627.5 Z"/></g>
<g><path style="opacity:0.263" fill="#e1e1e1" d="M 111.5,638.5 C 113.104,639.287 113.771,640.62 113.5,642.5C 112.326,641.486 111.66,640.153 111.5,638.5 Z"/></g>
<g><path style="opacity:0.451" fill="#c8c8c8" d="M 114.5,644.5 C 116.244,648.034 115.244,650.701 111.5,652.5C 113.428,650.219 114.428,647.553 114.5,644.5 Z"/></g>
<g><path style="opacity:0.009" fill="#f2f2f2" d="M 113.5,673.5 C 112.841,676.455 112.508,679.455 112.5,682.5C 111.848,681.551 111.514,680.385 111.5,679C 111.393,676.779 112.06,674.946 113.5,673.5 Z"/></g>
<g><path style="opacity:0.365" fill="#bababa" d="M 112.5,682.5 C 113.613,683.946 113.78,685.613 113,687.5C 112.329,688.252 111.496,688.586 110.5,688.5C 112.081,686.858 112.747,684.858 112.5,682.5 Z"/></g>
<g><path style="opacity:0.021" fill="#efefef" d="M 1801.5,685.5 C 1802.17,694.16 1802.5,702.994 1802.5,712C 1802.7,724.705 1802.03,737.205 1800.5,749.5C 1801.04,728.171 1801.38,706.837 1801.5,685.5 Z"/></g>
<g><path style="opacity:0.42" fill="#c4c4c4" d="M 107.5,714.5 C 110.167,715.167 111.833,716.833 112.5,719.5C 110.5,718.167 108.833,716.5 107.5,714.5 Z"/></g>
<g><path style="opacity:0.204" fill="#e3e3e3" d="M 115.5,722.5 C 116.653,723.313 116.653,724.313 115.5,725.5C 115.043,726.298 114.376,726.631 113.5,726.5C 114.167,725.167 114.833,723.833 115.5,722.5 Z"/></g>
<g><path style="opacity:0.408" fill="#cecece" d="M 111.5,727.5 C 109.615,729.053 108.615,731.053 108.5,733.5C 106.809,730.336 107.809,728.336 111.5,727.5 Z"/></g>
<g><path style="opacity:0.016" fill="#eaeaea" d="M 108.5,733.5 C 112.569,734.689 116.569,735.689 120.5,736.5C 117.813,736.664 115.146,736.497 112.5,736C 110.68,735.8 109.347,734.966 108.5,733.5 Z"/></g>
<g><path style="opacity:0.69" fill="#848484" d="M 123.5,738.5 C 125.5,738.5 126.5,739.5 126.5,741.5C 125.167,740.833 124.167,739.833 123.5,738.5 Z"/></g>
<g><path style="opacity:0.522" fill="#b5b5b5" d="M 124.5,756.5 C 124.027,757.906 123.027,758.573 121.5,758.5C 121.973,757.094 122.973,756.427 124.5,756.5 Z"/></g>
<g><path style="opacity:0.357" fill="#e6e6e6" d="M 121.5,759.5 C 121.88,761.698 121.213,763.365 119.5,764.5C 119.796,762.597 120.463,760.93 121.5,759.5 Z"/></g>
<g><path style="opacity:0.486" fill="#c9c9c9" d="M 119.5,764.5 C 119.027,765.906 118.027,766.573 116.5,766.5C 116.973,765.094 117.973,764.427 119.5,764.5 Z"/></g>
<g><path style="opacity:0.016" fill="#dcdcdc" d="M 1800.5,749.5 C 1800.79,763.187 1801.46,776.854 1802.5,790.5C 1800.95,786.1 1800.12,781.434 1800,776.5C 1799.18,767.324 1799.34,758.324 1800.5,749.5 Z"/></g>
<g><path style="opacity:0.263" fill="#e5e5e5" d="M 116.5,766.5 C 115.713,768.104 114.38,768.771 112.5,768.5C 113.514,767.326 114.847,766.66 116.5,766.5 Z"/></g>
<g><path style="opacity:0.51" fill="#aeaeae" d="M 106.5,772.5 C 107.569,775.196 106.569,777.196 103.5,778.5C 104.5,776.5 105.5,774.5 106.5,772.5 Z"/></g>
<g><path style="opacity:0.182" fill="#d5d5d5" d="M 103.5,780.5 C 105.153,780.66 106.486,781.326 107.5,782.5C 105.62,782.771 104.287,782.104 103.5,780.5 Z"/></g>
<g><path style="opacity:0.004" fill="#e8e8e8" d="M 107.5,782.5 C 109.265,785.123 109.932,788.123 109.5,791.5C 108.525,788.689 107.858,785.689 107.5,782.5 Z"/></g>
<g><path style="opacity:0.074" fill="#dcdcdc" d="M 1804.5,796.5 C 1806.2,800.954 1807.53,805.62 1808.5,810.5C 1805.94,806.288 1804.61,801.622 1804.5,796.5 Z"/></g>
<g><path style="opacity:0.455" fill="#e9e9e9" d="M 109.5,797.5 C 110.638,800.304 110.805,803.304 110,806.5C 109.329,807.252 108.496,807.586 107.5,807.5C 109.299,804.495 109.966,801.162 109.5,797.5 Z"/></g>
<g><path style="opacity:0.05" fill="#f1f1f1" d="M 105.5,810.5 C 105.256,816.966 104.256,823.299 102.5,829.5C 101.861,828.903 101.528,828.07 101.5,827C 102.794,821.379 104.128,815.879 105.5,810.5 Z"/></g>
<g><path style="opacity:0.16" fill="#fcfcfc" d="M 102.5,829.5 C 104.857,829.337 107.19,829.503 109.5,830C 108.883,832.277 108.216,834.444 107.5,836.5C 107.719,832.732 106.053,830.398 102.5,829.5 Z"/></g>
<g><path style="opacity:0.133" fill="#e6e6e6" d="M 106.5,846.5 C 109.022,848.002 109.022,849.335 106.5,850.5C 106.5,849.167 106.5,847.833 106.5,846.5 Z"/></g>
<g><path style="opacity:0.008" fill="#e9e9e9" d="M 1808.5,810.5 C 1810.62,816.865 1811.78,823.532 1812,830.5C 1812.59,840.833 1813.09,851.166 1813.5,861.5C 1813.17,861.5 1812.83,861.5 1812.5,861.5C 1812.14,844.413 1810.81,827.413 1808.5,810.5 Z"/></g>
<g><path style="opacity:0.463" fill="#c7c7c7" d="M 104.5,852.5 C 103.551,854.777 102.218,856.777 100.5,858.5C 100.622,855.708 101.956,853.708 104.5,852.5 Z"/></g>
<g><path style="opacity:0.039" fill="#f0f0f0" d="M 97.5,865.5 C 97.4349,868.428 96.7682,871.095 95.5,873.5C 95.2938,870.505 95.9605,867.838 97.5,865.5 Z"/></g>
<g><path style="opacity:0.796" fill="#808080" d="M 1812.5,861.5 C 1812.83,861.5 1813.17,861.5 1813.5,861.5C 1814.45,870.133 1815.12,878.8 1815.5,887.5C 1815.5,890.5 1815.5,893.5 1815.5,896.5C 1813.68,885.049 1812.68,873.382 1812.5,861.5 Z"/></g>
<g><path style="opacity:0.038" fill="#cfcfcf" d="M 1815.5,887.5 C 1816.31,896.705 1818.31,905.705 1821.5,914.5C 1818.81,928.013 1817.81,941.68 1818.5,955.5C 1818.5,960.167 1818.5,964.833 1818.5,969.5C 1817.34,953.339 1817.17,937.005 1818,920.5C 1819.11,918.61 1819.95,916.61 1820.5,914.5C 1817.23,909.018 1815.57,903.018 1815.5,896.5C 1815.5,893.5 1815.5,890.5 1815.5,887.5 Z"/></g>
<g><path style="opacity:0.052" fill="#ebebeb" d="M 1818.5,955.5 C 1819.83,971.886 1821.49,988.386 1823.5,1005C 1823.15,1009.04 1820.81,1011.04 1816.5,1011C 1808.5,1011.33 1800.5,1011.67 1792.5,1012C 1791.27,1014.57 1789.61,1016.74 1787.5,1018.5C 1779.92,1015.01 1771.92,1012.85 1763.5,1012C 1759.5,1011.33 1755.5,1011.33 1751.5,1012C 1749.17,1015.67 1746.83,1019.33 1744.5,1023C 1740.37,1023.85 1736.37,1023.52 1732.5,1022C 1730.22,1018.05 1727.55,1014.39 1724.5,1011C 1721.17,1010.33 1717.83,1010.33 1714.5,1011C 1707.05,1014.78 1699.38,1018.12 1691.5,1021C 1684.83,1021.33 1678.17,1021.67 1671.5,1022C 1638.81,1032.37 1605.48,1035.37 1571.5,1031C 1567.02,1029.93 1563.35,1027.59 1560.5,1024C 1558.83,1023.83 1557.17,1023.67 1555.5,1023.5C 1550.5,1024.55 1545.5,1025.72 1540.5,1027C 1536.44,1027.77 1532.44,1027.6 1528.5,1026.5C 1525.99,1027.78 1523.32,1028.45 1520.5,1028.5C 1506.94,1024.92 1493.1,1023.25 1479,1023.5C 1461.06,1023.95 1443.23,1025.12 1425.5,1027C 1424.74,1027.94 1423.74,1028.44 1422.5,1028.5C 1416.84,1025.17 1411.17,1021.84 1405.5,1018.5C 1402.79,1019.25 1400.29,1019.25 1398,1018.5C 1390.7,1020.93 1383.54,1023.77 1376.5,1027C 1373.83,1027.17 1371.17,1027.33 1368.5,1027.5C 1346.05,1024 1323.55,1023.67 1301,1026.5C 1292.03,1025.38 1283.19,1023.55 1274.5,1021C 1267.83,1020.33 1261.17,1020.33 1254.5,1021C 1237.31,1022.97 1220.31,1025.97 1203.5,1030C 1183.29,1031.31 1163.12,1033.14 1143,1035.5C 1136.78,1035.04 1130.62,1034.2 1124.5,1033C 1116.28,1030.36 1107.95,1028.2 1099.5,1026.5C 1086.24,1028.76 1072.91,1029.09 1059.5,1027.5C 1052.5,1028.3 1045.5,1029.13 1038.5,1030C 1034.62,1031.19 1031.12,1033.02 1028,1035.5C 1024.23,1032.72 1020.23,1030.39 1016,1028.5C 1008.22,1030.03 1000.39,1031.2 992.5,1032C 980.924,1032.05 969.424,1032.89 958,1034.5C 942.106,1031.71 926.273,1029.37 910.5,1027.5C 911.167,1027.5 911.833,1027.5 912.5,1027.5C 924.501,1028.56 936.501,1029.72 948.5,1031C 951.51,1031.84 954.51,1032.67 957.5,1033.5C 959.067,1033.52 960.4,1033.02 961.5,1032C 979.603,1031.63 997.603,1030.13 1015.5,1027.5C 1017.17,1027.67 1018.83,1027.83 1020.5,1028C 1022.4,1030.41 1024.74,1032.24 1027.5,1033.5C 1031.11,1030.86 1035.11,1029.03 1039.5,1028C 1059.53,1027.22 1079.53,1026.06 1099.5,1024.5C 1108.22,1026.55 1116.89,1029.05 1125.5,1032C 1143.34,1034.36 1161,1033.53 1178.5,1029.5C 1185.52,1029.13 1192.69,1029.13 1200,1029.5C 1221.24,1024.35 1242.74,1020.68 1264.5,1018.5C 1274.06,1019.25 1283.4,1021.08 1292.5,1024C 1305.19,1024.29 1317.85,1023.79 1330.5,1022.5C 1343.42,1023.09 1356.25,1024.42 1369,1026.5C 1371.17,1026.33 1373.33,1026.17 1375.5,1026C 1386.61,1018.55 1398.61,1016.22 1411.5,1019C 1414.81,1022.32 1418.47,1025.15 1422.5,1027.5C 1423.65,1026.86 1424.65,1026.02 1425.5,1025C 1431.48,1025.33 1437.48,1025.33 1443.5,1025C 1444.77,1023.78 1446.27,1022.95 1448,1022.5C 1459.29,1023.03 1470.63,1023.03 1482,1022.5C 1495.23,1021.44 1508.06,1023.1 1520.5,1027.5C 1523.04,1026.98 1525.54,1026.31 1528,1025.5C 1531.8,1026.48 1535.64,1026.65 1539.5,1026C 1545.01,1023.91 1550.68,1022.41 1556.5,1021.5C 1557.83,1021.67 1559.17,1021.83 1560.5,1022C 1562.93,1025.1 1565.93,1027.43 1569.5,1029C 1577.87,1031.11 1586.37,1032.28 1595,1032.5C 1611.22,1031.59 1627.39,1030.09 1643.5,1028C 1651.94,1026.07 1660.28,1023.74 1668.5,1021C 1675.5,1020.67 1682.5,1020.33 1689.5,1020C 1694.74,1016.93 1700.41,1014.93 1706.5,1014C 1711.88,1008.9 1718.21,1007.23 1725.5,1009C 1728.29,1012.75 1730.96,1016.58 1733.5,1020.5C 1736.71,1021.81 1740.04,1022.47 1743.5,1022.5C 1743.21,1020.71 1743.55,1019.05 1744.5,1017.5C 1746.8,1015.48 1748.46,1012.98 1749.5,1010C 1757.89,1009.74 1766.22,1010.41 1774.5,1012C 1779.05,1012.52 1783.22,1014.02 1787,1016.5C 1788.71,1015.05 1789.88,1013.21 1790.5,1011C 1800.85,1010.11 1811.19,1009.11 1821.5,1008C 1822.06,1007.28 1822.39,1006.44 1822.5,1005.5C 1820.72,993.521 1819.39,981.521 1818.5,969.5C 1818.5,964.833 1818.5,960.167 1818.5,955.5 Z"/></g>
<g><path style="opacity:0.024" fill="#d4d4d4" d="M 94.5,881.5 C 97.5404,927.814 100.207,974.147 102.5,1020.5C 121.117,1020.01 139.617,1019.68 158,1019.5C 165.833,1019.67 173.667,1019.83 181.5,1020C 193.964,1023.05 206.464,1022.89 219,1019.5C 223.219,1019.72 227.219,1020.72 231,1022.5C 234.717,1019.32 239.05,1017.65 244,1017.5C 253.933,1018.77 263.766,1020.61 273.5,1023C 278.191,1023.65 282.857,1023.48 287.5,1022.5C 289.693,1022.86 291.527,1023.86 293,1025.5C 295.167,1024 297.333,1022.5 299.5,1021C 305.147,1021.3 310.814,1021.3 316.5,1021C 320.83,1018.69 325.33,1018.19 330,1019.5C 336.05,1015.71 342.216,1015.54 348.5,1019C 352.352,1021.95 356.685,1023.95 361.5,1025C 371.752,1023.66 382.085,1023.32 392.5,1024C 401.498,1025.56 410.331,1027.72 419,1030.5C 421.856,1030.13 424.689,1029.63 427.5,1029C 431.187,1026.64 434.854,1024.3 438.5,1022C 455.958,1020.42 472.958,1022.42 489.5,1028C 500.527,1029.99 510.527,1027.66 519.5,1021C 525.69,1022.04 531.356,1020.7 536.5,1017C 538.473,1016.5 540.473,1016.34 542.5,1016.5C 543.657,1023.84 547.491,1025.51 554,1021.5C 560.951,1023.88 568.118,1025.05 575.5,1025C 578.755,1028.09 582.422,1030.59 586.5,1032.5C 607.951,1024.45 629.951,1022.61 652.5,1027C 657.392,1028.89 662.059,1031.23 666.5,1034C 672.815,1034.56 678.982,1035.72 685,1037.5C 689.487,1035.68 692.654,1032.51 694.5,1028C 695.833,1027.33 697.167,1027.33 698.5,1028C 700.881,1029.77 703.548,1030.93 706.5,1031.5C 709.284,1030.61 711.95,1029.44 714.5,1028C 723.59,1026.86 732.423,1024.69 741,1021.5C 747.087,1023.04 753.254,1024.2 759.5,1025C 762.731,1028.78 766.731,1031.28 771.5,1032.5C 776.206,1030.22 781.206,1028.72 786.5,1028C 789.852,1025.47 793.519,1023.63 797.5,1022.5C 802.271,1023.77 807.104,1024.77 812,1025.5C 818.973,1024.31 825.973,1023.31 833,1022.5C 836.544,1022.4 839.711,1023.4 842.5,1025.5C 845.706,1022.9 849.372,1021.4 853.5,1021C 864.13,1019.66 874.463,1020.83 884.5,1024.5C 888.604,1023.23 892.77,1022.23 897,1021.5C 903.061,1021.46 908.228,1023.46 912.5,1027.5C 911.833,1027.5 911.167,1027.5 910.5,1027.5C 901.949,1023.18 893.282,1022.85 884.5,1026.5C 870.449,1022.55 856.449,1022.55 842.5,1026.5C 839.355,1025.73 836.188,1025.06 833,1024.5C 821.125,1026.99 809.292,1026.99 797.5,1024.5C 794.043,1026.06 790.71,1027.9 787.5,1030C 782.322,1031.22 777.155,1032.39 772,1033.5C 766.411,1033.57 761.911,1031.41 758.5,1027C 752.649,1025.93 746.816,1024.76 741,1023.5C 731.138,1026.34 721.305,1029.18 711.5,1032C 706.147,1033.13 701.147,1032.3 696.5,1029.5C 694.525,1032.61 692.192,1035.44 689.5,1038C 688,1038.17 686.5,1038.33 685,1038.5C 679.357,1036.98 673.524,1036.15 667.5,1036C 663.113,1035.27 659.447,1033.27 656.5,1030C 634.852,1024.71 613.519,1025.71 592.5,1033C 589.5,1033.67 586.5,1033.67 583.5,1033C 580.187,1031.03 576.854,1029.03 573.5,1027C 566.765,1026.97 560.265,1025.8 554,1023.5C 550.845,1024.28 547.678,1024.44 544.5,1024C 542.59,1022.3 540.59,1020.8 538.5,1019.5C 532.29,1022.86 525.624,1024.36 518.5,1024C 508.321,1030.62 497.321,1032.28 485.5,1029C 470.25,1023.84 454.583,1022.17 438.5,1024C 433.159,1029 426.826,1031.84 419.5,1032.5C 412.632,1031.38 405.965,1029.54 399.5,1027C 394.014,1026.07 388.514,1025.24 383,1024.5C 369.425,1028.55 356.592,1027.05 344.5,1020C 342.833,1019.83 341.167,1019.67 339.5,1019.5C 332.837,1020.7 326.171,1021.86 319.5,1023C 312.833,1023.33 306.167,1023.67 299.5,1024C 295.282,1027.15 290.948,1027.32 286.5,1024.5C 273.29,1025.16 260.957,1023.49 249.5,1019.5C 246.594,1020.64 243.761,1020.64 241,1019.5C 238.821,1020.12 236.988,1021.28 235.5,1023C 234,1023.17 232.5,1023.33 231,1023.5C 226.362,1023.21 221.696,1022.54 217,1021.5C 211.775,1023.01 206.441,1024.01 201,1024.5C 193.984,1024.61 186.984,1023.61 180,1021.5C 154.231,1021.6 128.065,1021.6 101.5,1021.5C 101.023,1014.15 100.356,1006.81 99.5,999.5C 100.956,996.317 100.623,993.317 98.5,990.5C 99.3163,986.92 99.6496,983.42 99.5,980C 98.8333,977.333 98.1667,974.667 97.5,972C 98.0796,963.985 98.0796,955.819 97.5,947.5C 96.9264,945.941 96.2598,944.441 95.5,943C 96.4454,939.49 96.7787,935.823 96.5,932C 94.9063,917.387 93.9063,902.72 93.5,888C 93.5039,885.639 93.8373,883.473 94.5,881.5 Z"/></g>
</svg>
